<?xml version="1.0" encoding="utf-8"?>
<!-- Generator: Adobe Illustrator 21.1.0, SVG Export Plug-In . SVG Version: 6.00 Build 0)  -->
<svg version="1.1" xmlns="http://www.w3.org/2000/svg" xmlns:xlink="http://www.w3.org/1999/xlink" x="0px" y="0px"
	 viewBox="0 0 200 200" style="enable-background:new 0 0 200 200;" xml:space="preserve">
<style type="text/css">
	.st0{fill:#343434;}
</style>
<g id="Layer_6">
</g>
<g id="Layer_2">
	<path class="st0" d="M145,55.6c-30.3,0-43.7-49-43.7-49s-13.5,49-43.7,49c-2.6,0-5.4-0.4-8.3-1.2L11.5,40.3
		c0,0,28.1,29.7,30.8,61.6c0,0,0.4,2,3.7,4.5c-0.6,6-0.8,14.8-0.9,20.4c-0.1,9.1,1,18.5,3.8,26.4c4.9,13.6,14.2,21.1,23.1,27.5
		c9.3,6.7,19.2,12.7,29.2,10c10,2.7,19.9-3.3,29.2-10c8.9-6.4,18.2-13.9,23.1-27.5c2.8-7.9,3.9-17.2,3.8-26.4
		c-0.1-5.6-0.2-14.3-0.9-20.4c3.3-2.5,3.7-4.5,3.7-4.5c2.7-31.9,30.8-61.6,30.8-61.6l-37.7,14.1C150.4,55.2,147.6,55.6,145,55.6z
		 M148.1,127.2c-1.3,2.4-3,4.3-4.6,6.1c-3.3,3.7-6.7,7.4-9,12.7c-0.7,1.8-1.3,3.8-2.1,5.6c-1.4,3.4-3.3,6.2-5.1,9
		c-1.5,2.3-3.1,4.6-4.9,6c-2.3,1.8-5,2.2-7.6,2.3c-2,0.1-4.2-0.1-5.9-1.8c-1.5-1.5-2.5-4-3.8-5.9c-0.9-1.3-2.1-2.6-3.3-3
		c-0.1,0-0.2-0.1-0.3-0.1c-0.1,0-0.2,0-0.3,0c-0.1,0-0.2,0-0.3,0c-0.1,0-0.2,0-0.3,0.1c-1.2,0.4-2.4,1.6-3.3,3
		c-1.3,2-2.3,4.5-3.8,5.9c-1.7,1.7-3.9,1.8-5.9,1.8c-2.6-0.1-5.2-0.5-7.6-2.3c-1.9-1.5-3.4-3.8-4.9-6c-1.9-2.8-3.7-5.6-5.1-9
		c-0.7-1.8-1.3-3.8-2.1-5.6c-2.2-5.4-5.7-9.1-9-12.7c-1.6-1.8-3.3-3.7-4.6-6.1c-1.6-2.9-3-11.4-4.2-18.2c7.6,3.7,22.3,7.6,51.1,7.6
		c28.8,0,43.5-3.8,51.1-7.6C151.1,115.7,149.7,124.3,148.1,127.2z M155.6,60.5l16.3-6.1c-7.8,11.9-16.3,28.3-18.1,45.7
		c-1.5,1.8-10.9,9.9-52.6,9.9s-51-8.1-52.6-9.9c-1.8-17.4-10.2-33.8-18.1-45.7l16.3,6.1c0.2,0.1,0.3,0.1,0.5,0.2
		c3.4,0.9,6.8,1.4,10.1,1.4c22.4,0,36.4-21.3,43.7-37.1c7.3,15.8,21.3,37.1,43.7,37.1c3.3,0,6.7-0.5,10.1-1.4
		C155.2,60.6,155.4,60.6,155.6,60.5z"/>
	<g>
		<path class="st0" d="M98.4,120.9c-0.2,0.7-1.7,0.8-3.5,0.4c-1.8-0.5-3-1.4-2.9-2.1c0.2-0.7,1.7-0.8,3.5-0.4
			C97.3,119.2,98.6,120.2,98.4,120.9z"/>
		<path class="st0" d="M104.1,120.9c0.2,0.7,1.7,0.8,3.5,0.4c1.8-0.5,3-1.4,2.9-2.1c-0.2-0.7-1.7-0.8-3.5-0.4
			C105.2,119.2,103.9,120.2,104.1,120.9z"/>
	</g>
	<path class="st0" d="M118.6,129.4l0.4,6.4c0,0.8-0.6,1.5-1.3,1.5l-5.5,0.3c-0.8,0-1.5-0.6-1.5-1.3l-0.3-5.8l-4.1,0.5l0.5,9
		c0,0.8-0.6,1.5-1.3,1.5l-5.5,0.3c-0.8,0-1.5-0.6-1.5-1.3l-0.5-8.5l-4,0.5l1.1,5.9c0.2,0.8-0.4,1.5-1.1,1.7l-5.5,1.1
		c-0.8,0.2-1.5-0.4-1.7-1.1l-1.3-6.5l-10.5,1.3c0,0,14.4,18.1,30.8,15.9c16.3-2.3,20.6-22.1,20.6-22.1L118.6,129.4z"/>
	<g>
		<path class="st0" d="M132.7,90.6c-1.2,0-2.2,0.4-2.9,1.3c-0.7,0.8-1.1,1.9-1.2,3.3l8.2-0.2C136.4,92,135.1,90.6,132.7,90.6z"/>
		<path class="st0" d="M117.9,75l-0.1-3.3l-3.9,0.1c-0.9,0-1.7,0.3-2.2,0.9c-0.5,0.6-0.8,1.2-0.8,2.1c0,0.7,0.3,1.3,0.7,1.8
			c0.5,0.5,1.2,0.8,2.1,0.7c0.8,0,1.5-0.2,2.2-0.6C116.8,76.2,117.4,75.7,117.9,75z"/>
		<path class="st0" d="M76.1,77.9c1.5,0,2.6-0.6,3.4-1.7c0.8-1.1,1.2-2.4,1.2-4.1c0-1.7-0.5-3.1-1.3-4.2c-0.8-1-2-1.5-3.4-1.5
			c-1.5,0-2.6,0.6-3.4,1.7c-0.8,1.1-1.2,2.4-1.2,4.1c0,1.7,0.5,3.1,1.3,4.1C73.5,77.5,74.7,78,76.1,77.9z"/>
		<path class="st0" d="M139.4,65.3c-1.2,0-2.2,0.4-2.9,1.3c-0.7,0.8-1.1,1.9-1.2,3.3l8.2-0.2C143.1,66.7,141.7,65.3,139.4,65.3z"/>
		<path class="st0" d="M141.6,59.8l-18.1-8.6l-13.8-17.3l-8-12.2L75.1,54.8l-25,2.9l-20.7-3.9l12.4,29.5l6.1,21l25.7,7.4l54.5,0.9
			l28.2-9.9l9.1-31.4l11.1-18.6L141.6,59.8z M69.8,68.3c0.6-1.2,1.4-2.1,2.4-2.8c1.1-0.7,2.3-1,3.8-1.1c2.2,0,3.9,0.6,5.2,2
			c1.3,1.4,1.9,3.3,2,5.6c0,1.5-0.2,2.8-0.8,4c-0.6,1.2-1.4,2.1-2.5,2.8c-1.1,0.7-2.4,1-3.9,1.1c-1.4,0-2.6-0.3-3.7-0.9
			c-1.1-0.6-1.9-1.5-2.5-2.7c-0.6-1.2-0.9-2.5-0.9-4C69,70.8,69.2,69.5,69.8,68.3z M59.7,85.2c-0.8,0.7-1.7,1.1-2.8,1.4l-0.8-1.7
			c0.9-0.5,1.6-0.9,2.1-1.2c0.4-0.3,0.8-0.8,1-1.4l0.9-2.5l-5.7-14l2.1-0.9l4.7,11.7l4-11.4l2.4,0l-6.1,17.8
			C61.1,83.8,60.5,84.6,59.7,85.2z M76.3,101.5c-0.6,1.2-1.4,2.1-2.5,2.8c-1.1,0.7-2.4,1-3.9,1.1c-1.4,0-2.6-0.3-3.7-0.9
			c-1.1-0.6-1.9-1.5-2.5-2.7c-0.6-1.2-0.9-2.5-0.9-4c0-1.5,0.3-2.8,0.8-4c0.6-1.2,1.4-2.1,2.4-2.8c1.1-0.7,2.3-1,3.8-1.1
			c2.2,0,3.9,0.6,5.2,2c1.3,1.4,1.9,3.3,2,5.6C77.1,99,76.9,100.3,76.3,101.5z M83,90.2l2.7-0.1l0.8,1.8L83.1,92l0.2,12.6l-2.4,0
			l-0.2-12.6l-2.2,0l-0.1-1.8l2.2,0l0-2.3c0-1.4,0.3-2.5,1-3.3c0.7-0.8,1.7-1.3,3-1.3c0.4,0,0.8,0,1.2,0.1c0.4,0.1,0.7,0.2,1,0.3
			l-0.5,1.9c-0.2-0.1-0.4-0.1-0.6-0.2c-0.3-0.1-0.5-0.1-0.7-0.1c-1.4,0-2,0.9-2,2.6L83,90.2z M92.1,90l2.7-0.1l0.8,1.8l-3.5,0.1
			l0.2,12.6l-2.4,0l-0.2-12.6l-2.2,0l-0.1-1.8l2.2,0l0-2.3c0-1.4,0.3-2.5,1-3.3c0.7-0.8,1.7-1.3,3-1.3c0.4,0,0.8,0,1.2,0.1
			c0.4,0.1,0.7,0.2,1,0.3l-0.5,1.9c-0.2-0.1-0.4-0.1-0.6-0.2s-0.5-0.1-0.7-0.1c-1.4,0-2,0.9-2,2.6L92.1,90z M96.2,77.1
			c-0.7,0.7-1.5,1.4-2.6,1.9c-1,0.5-2,0.8-2.9,0.8c-1.6,0-2.7-0.4-3.5-1.3c-0.8-0.9-1.2-2.2-1.2-3.7l-0.2-9.9l2.4,0l0.2,9.6
			c0,1.1,0.2,1.9,0.7,2.5c0.4,0.6,1.1,0.9,2,0.9c0.7,0,1.5-0.3,2.4-0.8c0.9-0.5,1.7-1.2,2.4-2l-0.2-10.4l2.4,0l0.3,14.7l-1.8,0
			L96.2,77.1z M98.5,104.3l-0.4-21l2.4-0.3l0.4,21.3L98.5,104.3z M105,104.2l-0.3-14.7l2.4,0l0.3,14.7L105,104.2z M106.9,86.1
			c-0.3,0.3-0.7,0.5-1.1,0.5c-0.5,0-0.8-0.1-1.2-0.4c-0.3-0.3-0.5-0.7-0.5-1.1c0-0.5,0.1-0.9,0.4-1.2c0.3-0.3,0.7-0.5,1.1-0.5
			c0.4,0,0.8,0.1,1.2,0.5s0.5,0.7,0.5,1.1C107.4,85.4,107.3,85.8,106.9,86.1z M108.8,74.8c0-1.4,0.4-2.5,1.4-3.3
			c1-0.8,2.2-1.2,3.8-1.3l3.8-0.1l0-0.8c0-1.1-0.3-1.9-0.8-2.6c-0.5-0.6-1.3-0.9-2.5-0.9c-0.9,0-1.6,0.1-2.2,0.3
			c-0.6,0.2-1.3,0.4-2,0.8l-0.7-1.8c0.5-0.4,1.3-0.7,2.3-1c1-0.3,1.9-0.4,2.5-0.4c1.1,0,2.1,0.2,3,0.6c0.9,0.4,1.6,1,2.1,1.7
			c0.5,0.7,0.8,1.6,0.8,2.5l0.2,10.1l-1.8,0l-0.3-1.5c-0.5,0.5-1.2,1-2,1.4c-0.8,0.4-1.6,0.6-2.3,0.6c-1.6,0-2.9-0.4-3.8-1.2
			C109.3,77.2,108.8,76.1,108.8,74.8z M121.1,103.9l-0.2-9.6c0-1.1-0.2-1.9-0.7-2.5c-0.4-0.6-1.1-0.9-2-0.9c-0.7,0-1.5,0.3-2.4,0.8
			c-0.9,0.5-1.7,1.2-2.4,2l0.2,10.4l-2.4,0l-0.3-14.7l1.8,0l0.4,2.1c0.7-0.7,1.5-1.4,2.6-1.9c1-0.5,2-0.8,2.9-0.8
			c1.6,0,2.7,0.4,3.5,1.3c0.8,0.9,1.2,2.2,1.2,3.7l0.2,9.9L121.1,103.9z M123.7,64l1.4,0l0.8,2.3c0.7-0.6,1.4-1.1,2.4-1.6
			c0.9-0.5,1.7-0.8,2.4-0.8l0.6,1.9c-0.8,0-1.7,0.3-2.7,0.9c-1,0.6-1.8,1.2-2.5,1.9l0.2,10.1l-2.4,0L123.7,64z M130,100.7
			c0.9,0.9,2.1,1.4,3.9,1.4c0.8,0,1.5-0.1,2.2-0.3s1.4-0.6,2.3-1l0.8,1.7c-0.8,0.5-1.6,0.9-2.5,1.2c-0.8,0.3-1.7,0.4-2.7,0.5
			c-2.5,0-4.4-0.6-5.8-2c-1.3-1.4-2-3.3-2.1-5.6c0-1.5,0.2-2.8,0.7-4c0.5-1.2,1.3-2.1,2.3-2.8c1-0.7,2.2-1,3.7-1.1
			c2.1,0,3.7,0.7,4.8,2.1c1,1.5,1.6,3.4,1.6,5.8l-10.6,0.2C128.7,98.4,129.1,99.7,130,100.7z M136.7,75.3c0.9,0.9,2.1,1.4,3.9,1.4
			c0.8,0,1.5-0.1,2.2-0.3c0.7-0.2,1.4-0.6,2.3-1l0.8,1.7c-0.8,0.5-1.6,0.9-2.5,1.2c-0.8,0.3-1.7,0.4-2.7,0.5c-2.5,0-4.4-0.6-5.8-2
			c-1.3-1.4-2-3.3-2.1-5.6c0-1.5,0.2-2.8,0.7-4c0.5-1.2,1.3-2.1,2.3-2.8c1-0.7,2.2-1,3.7-1.1c2.1,0,3.7,0.7,4.8,2.1
			c1,1.5,1.6,3.4,1.6,5.8l-10.6,0.2C135.3,73.1,135.8,74.4,136.7,75.3z"/>
		<path class="st0" d="M69.9,91.9c-1.5,0-2.6,0.6-3.4,1.7c-0.8,1.1-1.2,2.4-1.2,4.1c0,1.7,0.5,3.1,1.3,4.1c0.8,1.1,2,1.6,3.4,1.5
			c1.5,0,2.6-0.6,3.4-1.7c0.8-1.1,1.2-2.4,1.2-4.1c0-1.7-0.5-3.1-1.3-4.2C72.5,92.3,71.4,91.8,69.9,91.9z"/>
	</g>
</g>
</svg>
