<?xml version="1.0" standalone="no"?>
<!DOCTYPE svg PUBLIC "-//W3C//DTD SVG 20010904//EN"
 "http://www.w3.org/TR/2001/REC-SVG-20010904/DTD/svg10.dtd">
<svg version="1.0" xmlns="http://www.w3.org/2000/svg"
 width="320.000000pt" height="320.000000pt" viewBox="0 0 320.000000 320.000000"
 preserveAspectRatio="xMidYMid meet">
<metadata>
Created by potrace 1.11, written by Peter Selinger 2001-2013
</metadata>
<g transform="translate(0.000000,320.000000) scale(0.100000,-0.100000)"
fill="#000000" stroke="none">
<path d="M1580 3174 c-6 -14 -10 -29 -10 -34 0 -23 -105 -250 -154 -333 -163
-277 -342 -415 -552 -423 -102 -4 -118 0 -474 133 -162 61 -306 114 -319 118
-24 7 -24 7 3 -21 50 -53 201 -258 253 -344 68 -113 145 -268 177 -358 40
-113 73 -251 75 -314 1 -14 16 -44 35 -66 31 -37 33 -44 26 -87 -9 -58 -5
-497 4 -545 53 -258 128 -402 290 -550 65 -60 222 -174 299 -218 132 -76 171
-86 352 -88 147 -2 166 0 235 23 122 40 313 165 463 303 149 136 251 354 274
583 8 83 8 319 0 455 -5 91 -5 93 24 123 15 17 31 47 34 67 29 176 54 263 112
401 73 170 207 387 344 555 40 49 66 87 58 84 -230 -88 -652 -242 -674 -247
-57 -12 -199 -4 -250 13 -88 30 -202 107 -261 176 -12 14 -32 36 -44 50 -90
101 -223 353 -280 528 -15 48 -26 53 -40 16z m55 -347 c109 -226 303 -434 478
-511 96 -43 244 -60 347 -41 47 8 212 65 228 77 6 6 12 8 12 5 0 -3 21 3 46
14 25 12 48 19 50 16 3 -2 -13 -33 -34 -68 -82 -134 -157 -294 -195 -414 -31
-99 -42 -144 -63 -260 -8 -43 -21 -55 -99 -90 -80 -37 -181 -64 -302 -80 -26
-4 -59 -9 -73 -11 -144 -25 -719 -24 -876 1 -16 3 -42 7 -59 10 -16 2 -48 7
-70 10 -122 18 -308 89 -326 125 -4 8 -12 51 -19 95 -26 173 -135 442 -255
630 -20 30 -33 55 -30 55 2 0 64 -22 137 -49 178 -66 209 -73 308 -73 143 -1
262 40 381 131 124 93 243 241 329 409 23 45 45 82 49 82 3 0 20 -29 36 -63z
m-818 -1406 c48 -17 104 -33 123 -36 19 -3 42 -8 50 -10 8 -2 35 -7 60 -10 25
-3 52 -8 60 -10 8 -2 47 -6 85 -9 39 -4 97 -9 130 -12 77 -6 460 -6 545 0 114
10 188 17 207 20 10 2 40 7 67 10 41 6 101 19 227 50 8 2 32 11 53 20 21 9 41
16 43 16 11 0 -29 -204 -53 -272 -18 -51 -62 -112 -145 -197 -43 -44 -84 -118
-129 -236 -26 -66 -126 -228 -162 -263 -35 -32 -91 -52 -147 -52 -66 0 -93 14
-122 61 -79 131 -101 144 -155 97 -18 -16 -34 -34 -34 -39 0 -20 -55 -91 -81
-105 -34 -17 -98 -18 -151 -2 -73 22 -177 165 -244 335 -43 110 -65 144 -165
257 -79 90 -109 148 -124 238 -3 18 -10 56 -15 83 -18 88 -19 95 -15 95 2 0
43 -13 92 -29z"/>
<path d="M1579 2482 l-15 -47 -52 -3 c-29 -2 -52 -6 -52 -10 0 -4 18 -19 39
-34 l39 -28 -14 -47 c-19 -61 -18 -67 6 -45 11 10 32 25 45 32 23 12 29 11 72
-19 25 -18 43 -26 40 -18 -3 8 -11 34 -18 57 -11 37 -11 43 4 52 9 5 29 20 45
33 l27 24 -56 1 -56 0 -13 45 c-7 25 -16 47 -20 50 -4 2 -13 -17 -21 -43z"/>
<path d="M1475 2152 c-3 -8 -5 -24 -5 -37 0 -19 7 -25 33 -30 l34 -7 0 -214
c0 -173 -3 -214 -13 -215 -8 -1 -18 -3 -24 -4 -5 -1 -14 -3 -20 -4 -11 -1 -14
-70 -2 -72 19 -3 228 -5 237 -2 6 2 10 18 9 36 0 27 -5 33 -32 42 l-32 9 0
213 c0 224 -1 221 42 214 20 -3 30 60 13 77 -4 4 -58 7 -121 7 -85 0 -115 -3
-119 -13z"/>
<path d="M1462 1248 c3 -8 25 -14 54 -16 45 -2 48 -1 30 13 -24 19 -90 21 -84
3z"/>
<path d="M1653 1253 c-7 -2 -13 -9 -13 -14 0 -15 64 -10 86 6 18 13 16 14 -21
14 -22 0 -46 -3 -52 -6z"/>
<path d="M1945 1090 l-40 -5 3 -45 c2 -25 5 -53 8 -62 3 -10 4 -18 2 -18 -2 0
-33 -3 -70 -6 l-68 -7 -1 37 c-1 20 -3 41 -4 46 -1 6 -3 16 -4 24 -1 10 -13
14 -41 13 l-41 -2 6 -50 c3 -27 8 -66 11 -86 l5 -37 -62 -7 c-69 -8 -78 -2
-80 53 -1 17 -3 37 -4 42 -1 6 -3 23 -4 39 -1 22 -5 28 -18 26 -10 -2 -30 -4
-44 -4 l-26 -1 13 -57 c8 -32 14 -63 14 -69 0 -6 -27 -18 -61 -27 l-60 -15
-10 25 c-5 13 -9 30 -9 36 0 7 -5 29 -11 50 l-10 37 -72 -7 c-40 -3 -80 -7
-89 -7 -10 0 -18 -5 -18 -10 0 -5 38 -47 85 -92 134 -131 286 -195 429 -180
150 15 275 126 361 319 l25 58 -37 -3 c-21 -1 -56 -5 -78 -8z"/>
</g>
</svg>
